<svg xmlns="http://www.w3.org/2000/svg" xmlns:xlink="http://www.w3.org/1999/xlink" contentStyleType="text/css" data-diagram-type="DESCRIPTION" height="377px" preserveAspectRatio="none" style="width:4511px;height:377px;background:#FFFFFF;" version="1.1" viewBox="0 0 4511 377" width="4511px" zoomAndPan="magnify"><defs/><g><!--cluster Linux Ricing Guide Website--><g class="cluster" data-entity="Linux Ricing Guide Website" data-source-line="3" data-uid="ent0003" id="cluster_Linux Ricing Guide Website"><rect fill="none" height="274.08" rx="2.5" ry="2.5" style="stroke:#181818;stroke-width:1;" width="4498" x="7" y="97.8"/><text fill="#000000" font-family="sans-serif" font-size="14" font-weight="bold" lengthAdjust="spacing" textLength="216.0225" x="2147.9888" y="112.7951">Linux Ricing Guide Website</text></g><!--cluster User Accounts--><g class="cluster" data-entity="User Accounts" data-source-line="6" data-uid="ent0004" id="cluster_User Accounts"><path d="M33.5,148.51 L147.4844,148.51 A3.75,3.75 0 0 1 149.9844,151.01 L156.9844,170.8069 L414.5,170.8069 A2.5,2.5 0 0 1 417,173.3069 L417,233.77 A2.5,2.5 0 0 1 414.5,236.27 L33.5,236.27 A2.5,2.5 0 0 1 31,233.77 L31,151.01 A2.5,2.5 0 0 1 33.5,148.51" fill="none" style="stroke:#000000;stroke-width:1.5;"/><line style="stroke:#000000;stroke-width:1.5;" x1="31" x2="156.9844" y1="170.8069" y2="170.8069"/><text fill="#000000" font-family="sans-serif" font-size="14" font-weight="bold" lengthAdjust="spacing" textLength="112.9844" x="35" y="163.5051">User Accounts</text></g><!--cluster Community & Feedback--><g class="cluster" data-entity="Community . Feedback" data-source-line="12" data-uid="ent0007" id="cluster_Community . Feedback"><path d="M443.5,144.25 L631.7295,144.25 A3.75,3.75 0 0 1 634.2295,146.75 L641.2295,166.5469 L831.5,166.5469 A2.5,2.5 0 0 1 834,169.0469 L834,341.12 A2.5,2.5 0 0 1 831.5,343.62 L443.5,343.62 A2.5,2.5 0 0 1 441,341.12 L441,146.75 A2.5,2.5 0 0 1 443.5,144.25" fill="none" style="stroke:#000000;stroke-width:1.5;"/><line style="stroke:#000000;stroke-width:1.5;" x1="441" x2="641.2295" y1="166.5469" y2="166.5469"/><text fill="#000000" font-family="sans-serif" font-size="14" font-weight="bold" lengthAdjust="spacing" textLength="187.2295" x="445" y="159.2451">Community &amp; Feedback</text></g><!--cluster System Setup Configurator--><g class="cluster" data-entity="System Setup Configurator" data-source-line="20" data-uid="ent0012" id="cluster_System Setup Configurator"><path d="M860.5,140.8 L1076.1279,140.8 A3.75,3.75 0 0 1 1078.6279,143.3 L1085.6279,163.0969 L2220.5,163.0969 A2.5,2.5 0 0 1 2223,165.5969 L2223,345.38 A2.5,2.5 0 0 1 2220.5,347.88 L860.5,347.88 A2.5,2.5 0 0 1 858,345.38 L858,143.3 A2.5,2.5 0 0 1 860.5,140.8" fill="none" style="stroke:#000000;stroke-width:1.5;"/><line style="stroke:#000000;stroke-width:1.5;" x1="858" x2="1085.6279" y1="163.0969" y2="163.0969"/><text fill="#000000" font-family="sans-serif" font-size="14" font-weight="bold" lengthAdjust="spacing" textLength="214.6279" x="862" y="155.7951">System Setup Configurator</text></g><!--cluster Documentation & Guides--><g class="cluster" data-entity="Documentation . Guides" data-source-line="31" data-uid="ent0020" id="cluster_Documentation . Guides"><path d="M2249.5,144.34 L2447.334,144.34 A3.75,3.75 0 0 1 2449.834,146.84 L2456.834,166.6369 L2888.5,166.6369 A2.5,2.5 0 0 1 2891,169.1369 L2891,237.94 A2.5,2.5 0 0 1 2888.5,240.44 L2249.5,240.44 A2.5,2.5 0 0 1 2247,237.94 L2247,146.84 A2.5,2.5 0 0 1 2249.5,144.34" fill="none" style="stroke:#000000;stroke-width:1.5;"/><line style="stroke:#000000;stroke-width:1.5;" x1="2247" x2="2456.834" y1="166.6369" y2="166.6369"/><text fill="#000000" font-family="sans-serif" font-size="14" font-weight="bold" lengthAdjust="spacing" textLength="196.834" x="2251" y="159.3351">Documentation &amp; Guides</text></g><!--cluster About the Project--><g class="cluster" data-entity="About the Project" data-source-line="37" data-uid="ent0024" id="cluster_About the Project"><path d="M2917.5,148.27 L3057.6045,148.27 A3.75,3.75 0 0 1 3060.1045,150.77 L3067.1045,170.5669 L3796.5,170.5669 A2.5,2.5 0 0 1 3799,173.0669 L3799,234 A2.5,2.5 0 0 1 3796.5,236.5 L2917.5,236.5 A2.5,2.5 0 0 1 2915,234 L2915,150.77 A2.5,2.5 0 0 1 2917.5,148.27" fill="none" style="stroke:#000000;stroke-width:1.5;"/><line style="stroke:#000000;stroke-width:1.5;" x1="2915" x2="3067.1045" y1="170.5669" y2="170.5669"/><text fill="#000000" font-family="sans-serif" font-size="14" font-weight="bold" lengthAdjust="spacing" textLength="139.1045" x="2919" y="163.2651">About the Project</text></g><!--cluster Navigation Methods--><g class="cluster" data-entity="Navigation Methods" data-source-line="46" data-uid="ent0030" id="cluster_Navigation Methods"><path d="M3825.5,144.87 L3985.0664,144.87 A3.75,3.75 0 0 1 3987.5664,147.37 L3994.5664,167.1669 L4478.5,167.1669 A2.5,2.5 0 0 1 4481,169.6669 L4481,237.41 A2.5,2.5 0 0 1 4478.5,239.91 L3825.5,239.91 A2.5,2.5 0 0 1 3823,237.41 L3823,147.37 A2.5,2.5 0 0 1 3825.5,144.87" fill="none" style="stroke:#000000;stroke-width:1.5;"/><line style="stroke:#000000;stroke-width:1.5;" x1="3823" x2="3994.5664" y1="167.1669" y2="167.1669"/><text fill="#000000" font-family="sans-serif" font-size="14" font-weight="bold" lengthAdjust="spacing" textLength="158.5664" x="3827" y="159.8651">Navigation Methods</text></g><!--entity UC_LoginGoogle--><g class="entity" data-entity="UC_LoginGoogle" data-source-line="7" data-uid="ent0005" id="entity_UC_LoginGoogle"><ellipse cx="126.9983" cy="201.8897" fill="#F1F1F1" rx="79.8983" ry="18.3797" style="stroke:#181818;stroke-width:0.5;"/><text fill="#000000" font-family="sans-serif" font-size="14" lengthAdjust="spacing" textLength="130.4365" x="61.78" y="206.5381">Log in with Google</text></g><!--entity UC_LoginGitHub--><g class="entity" data-entity="UC_LoginGitHub" data-source-line="8" data-uid="ent0006" id="entity_UC_LoginGitHub"><ellipse cx="320.9963" cy="201.8873" fill="#F1F1F1" rx="79.5363" ry="18.3073" style="stroke:#181818;stroke-width:0.5;"/><text fill="#000000" font-family="sans-serif" font-size="14" lengthAdjust="spacing" textLength="129.582" x="256.2053" y="206.5357">Log in with GitHub</text></g><!--entity UC_Discuss--><g class="entity" data-entity="UC_Discuss" data-source-line="13" data-uid="ent0008" id="entity_UC_Discuss"><ellipse cx="557.9991" cy="201.8918" fill="#F1F1F1" rx="101.2091" ry="22.6418" style="stroke:#181818;stroke-width:0.5;"/><text fill="#000000" font-family="sans-serif" font-size="14" lengthAdjust="spacing" textLength="178.7188" x="468.6397" y="206.5403">Participate in Discussions</text></g><!--entity UC_Comment--><g class="entity" data-entity="UC_Comment" data-source-line="14" data-uid="ent0009" id="entity_UC_Comment"><ellipse cx="544.999" cy="309.9298" fill="#F1F1F1" rx="76.449" ry="17.6898" style="stroke:#181818;stroke-width:0.5;"/><text fill="#000000" font-family="sans-serif" font-size="14" lengthAdjust="spacing" textLength="122.2266" x="483.8857" y="314.5782">Leave Comments</text></g><!--entity UC_RateComments--><g class="entity" data-entity="UC_RateComments" data-source-line="15" data-uid="ent0010" id="entity_UC_RateComments"><ellipse cx="729.0042" cy="309.9308" fill="#F1F1F1" rx="72.5542" ry="16.9108" style="stroke:#181818;stroke-width:0.5;"/><text fill="#000000" font-family="sans-serif" font-size="14" lengthAdjust="spacing" textLength="112.7451" x="672.6317" y="314.5793">Rate Comments</text></g><!--entity UC_RateDistros--><g class="entity" data-entity="UC_RateDistros" data-source-line="16" data-uid="ent0011" id="entity_UC_RateDistros"><ellipse cx="756" cy="201.892" fill="#F1F1F1" rx="62.21" ry="14.842" style="stroke:#181818;stroke-width:0.5;"/><text fill="#000000" font-family="sans-serif" font-size="14" lengthAdjust="spacing" textLength="85.9277" x="713.0361" y="206.5404">Rate Distros</text></g><!--entity UC_SelectDistro--><g class="entity" data-entity="UC_SelectDistro" data-source-line="21" data-uid="ent0013" id="entity_UC_SelectDistro"><ellipse cx="972.0006" cy="201.8861" fill="#F1F1F1" rx="97.9306" ry="21.9861" style="stroke:#181818;stroke-width:0.5;"/><text fill="#000000" font-family="sans-serif" font-size="14" lengthAdjust="spacing" textLength="171.4863" x="886.2574" y="206.5346">Select Linux Distribution</text></g><!--entity UC_SelectWM--><g class="entity" data-entity="UC_SelectWM" data-source-line="22" data-uid="ent0014" id="entity_UC_SelectWM"><ellipse cx="1202.003" cy="201.8886" fill="#F1F1F1" rx="96.793" ry="21.7586" style="stroke:#181818;stroke-width:0.5;"/><text fill="#000000" font-family="sans-serif" font-size="14" lengthAdjust="spacing" textLength="168.9639" x="1117.521" y="206.537">Select Window Manager</text></g><!--entity UC_SelectDE--><g class="entity" data-entity="UC_SelectDE" data-source-line="23" data-uid="ent0015" id="entity_UC_SelectDE"><ellipse cx="1445.0023" cy="201.8925" fill="#F1F1F1" rx="110.7623" ry="24.5525" style="stroke:#181818;stroke-width:0.5;"/><text fill="#000000" font-family="sans-serif" font-size="14" lengthAdjust="spacing" textLength="199.5273" x="1345.2386" y="206.5409">Select Desktop Environment</text></g><!--entity UC_SelectTerm--><g class="entity" data-entity="UC_SelectTerm" data-source-line="24" data-uid="ent0016" id="entity_UC_SelectTerm"><ellipse cx="1708.9994" cy="201.8899" fill="#F1F1F1" rx="118.4494" ry="26.0899" style="stroke:#181818;stroke-width:0.5;"/><text fill="#000000" font-family="sans-serif" font-size="14" lengthAdjust="spacing" textLength="216.043" x="1600.9779" y="206.5383">Choose Terminals and Themes</text></g><!--entity UC_SelectShell--><g class="entity" data-entity="UC_SelectShell" data-source-line="25" data-uid="ent0017" id="entity_UC_SelectShell"><ellipse cx="1926.0008" cy="201.8922" fill="#F1F1F1" rx="63.8108" ry="15.1622" style="stroke:#181818;stroke-width:0.5;"/><text fill="#000000" font-family="sans-serif" font-size="14" lengthAdjust="spacing" textLength="90.2891" x="1880.8563" y="206.5406">Choose Shell</text></g><!--entity UC_AddPkgMgr--><g class="entity" data-entity="UC_AddPkgMgr" data-source-line="26" data-uid="ent0018" id="entity_UC_AddPkgMgr"><ellipse cx="2116.0012" cy="201.8862" fill="#F1F1F1" rx="91.2312" ry="20.6462" style="stroke:#181818;stroke-width:0.5;"/><text fill="#000000" font-family="sans-serif" font-size="14" lengthAdjust="spacing" textLength="156.5225" x="2037.74" y="206.5347">Add Package Manager</text></g><!--entity UC_Homepages--><g class="entity" data-entity="UC_Homepages" data-source-line="27" data-uid="ent0019" id="entity_UC_Homepages"><ellipse cx="1577.0047" cy="309.9309" fill="#F1F1F1" rx="97.7547" ry="21.9509" style="stroke:#181818;stroke-width:0.5;"/><text fill="#000000" font-family="sans-serif" font-size="14" lengthAdjust="spacing" textLength="171.0967" x="1491.4563" y="314.5794">Visit Project Homepages</text></g><!--entity UC_LinuxOverview--><g class="entity" data-entity="UC_LinuxOverview" data-source-line="32" data-uid="ent0021" id="entity_UC_LinuxOverview"><ellipse cx="2363.9984" cy="201.8917" fill="#F1F1F1" rx="100.7584" ry="22.5517" style="stroke:#181818;stroke-width:0.5;"/><text fill="#000000" font-family="sans-serif" font-size="14" lengthAdjust="spacing" textLength="177.7275" x="2275.1346" y="206.5401">Linux Concepts Overview</text></g><!--entity UC_InstallGuides--><g class="entity" data-entity="UC_InstallGuides" data-source-line="33" data-uid="ent0022" id="entity_UC_InstallGuides"><ellipse cx="2580.0009" cy="201.8862" fill="#F1F1F1" rx="79.8809" ry="18.3762" style="stroke:#181818;stroke-width:0.5;"/><text fill="#000000" font-family="sans-serif" font-size="14" lengthAdjust="spacing" textLength="130.3955" x="2514.8031" y="206.5346">Installation Guides</text></g><!--entity UC_History--><g class="entity" data-entity="UC_History" data-source-line="34" data-uid="ent0023" id="entity_UC_History"><ellipse cx="2785.0042" cy="201.8948" fill="#F1F1F1" rx="89.9242" ry="20.3848" style="stroke:#181818;stroke-width:0.5;"/><text fill="#000000" font-family="sans-serif" font-size="14" lengthAdjust="spacing" textLength="153.5693" x="2708.2195" y="206.5433">Distro &amp; Linux History</text></g><!--entity UC_OurSetups--><g class="entity" data-entity="UC_OurSetups" data-source-line="38" data-uid="ent0025" id="entity_UC_OurSetups"><ellipse cx="3004.9996" cy="201.8859" fill="#F1F1F1" rx="73.9296" ry="17.1859" style="stroke:#181818;stroke-width:0.5;"/><text fill="#000000" font-family="sans-serif" font-size="14" lengthAdjust="spacing" textLength="116.1221" x="2946.9386" y="206.5344">View Our Setups</text></g><!--entity UC_TechUsed--><g class="entity" data-entity="UC_TechUsed" data-source-line="39" data-uid="ent0026" id="entity_UC_TechUsed"><ellipse cx="3193.9989" cy="201.8858" fill="#F1F1F1" rx="80.4789" ry="18.4958" style="stroke:#181818;stroke-width:0.5;"/><text fill="#000000" font-family="sans-serif" font-size="14" lengthAdjust="spacing" textLength="131.8037" x="3128.097" y="206.5342">Technologies Used</text></g><!--entity UC_AboutUs--><g class="entity" data-entity="UC_AboutUs" data-source-line="40" data-uid="ent0027" id="entity_UC_AboutUs"><ellipse cx="3356.9984" cy="201.8936" fill="#F1F1F1" rx="47.8184" ry="14.5236" style="stroke:#181818;stroke-width:0.5;"/><text fill="#000000" font-family="sans-serif" font-size="14" lengthAdjust="spacing" textLength="63.3828" x="3325.307" y="206.5421">About Us</text></g><!--entity UC_AboutPage--><g class="entity" data-entity="UC_AboutPage" data-source-line="41" data-uid="ent0028" id="entity_UC_AboutPage"><ellipse cx="3512.9988" cy="201.8858" fill="#F1F1F1" rx="72.8288" ry="16.9658" style="stroke:#181818;stroke-width:0.5;"/><text fill="#000000" font-family="sans-serif" font-size="14" lengthAdjust="spacing" textLength="113.4219" x="3456.2878" y="206.5342">About This Page</text></g><!--entity UC_Contributions--><g class="entity" data-entity="UC_Contributions" data-source-line="42" data-uid="ent0029" id="entity_UC_Contributions"><ellipse cx="3701.9999" cy="201.894" fill="#F1F1F1" rx="81.0699" ry="18.614" style="stroke:#181818;stroke-width:0.5;"/><text fill="#000000" font-family="sans-serif" font-size="14" lengthAdjust="spacing" textLength="133.1914" x="3635.4042" y="206.5424">Contributions Page</text></g><!--entity UC_TreeNav--><g class="entity" data-entity="UC_TreeNav" data-source-line="47" data-uid="ent0031" id="entity_UC_TreeNav"><ellipse cx="3924.0049" cy="201.887" fill="#F1F1F1" rx="84.5849" ry="19.317" style="stroke:#181818;stroke-width:0.5;"/><text fill="#000000" font-family="sans-serif" font-size="14" lengthAdjust="spacing" textLength="141.3672" x="3853.3213" y="206.5354">Browse via File Tree</text></g><!--entity UC_NodeNav--><g class="entity" data-entity="UC_NodeNav" data-source-line="48" data-uid="ent0032" id="entity_UC_NodeNav"><ellipse cx="4139.0032" cy="201.8906" fill="#F1F1F1" rx="94.9532" ry="21.3906" style="stroke:#181818;stroke-width:0.5;"/><text fill="#000000" font-family="sans-serif" font-size="14" lengthAdjust="spacing" textLength="164.8691" x="4056.5686" y="206.5391">Browse via Node Graph</text></g><!--entity UC_Search--><g class="entity" data-entity="UC_Search" data-source-line="49" data-uid="ent0033" id="entity_UC_Search"><ellipse cx="4367.0004" cy="201.8901" fill="#F1F1F1" rx="98.1004" ry="22.0201" style="stroke:#181818;stroke-width:0.5;"/><text fill="#000000" font-family="sans-serif" font-size="14" lengthAdjust="spacing" textLength="171.8623" x="4281.0693" y="206.5385">Search with Highlighting</text></g><!--entity User--><g class="entity" data-entity="User" data-source-line="1" data-uid="ent0002" id="entity_User"><ellipse cx="2363.9951" cy="14" fill="#F1F1F1" rx="8" ry="8" style="stroke:#181818;stroke-width:0.5;"/><path d="M2363.9951,22 L2363.9951,49 M2350.9951,30 L2376.9951,30 M2363.9951,49 L2350.9951,64 M2363.9951,49 L2376.9951,64" fill="none" style="stroke:#181818;stroke-width:0.5;"/><text fill="#000000" font-family="sans-serif" font-size="14" lengthAdjust="spacing" textLength="31.9102" x="2348.04" y="78.4951">User</text></g><!--link UC_Discuss to UC_Comment--><g class="link" data-entity-1="UC_Discuss" data-entity-2="UC_Comment" data-source-line="53" data-uid="lnk34" id="link_UC_Discuss_UC_Comment"><path d="M555.31,224.86 C552.87,244.76 550.0493,267.7045 547.8193,285.9145" fill="none" id="UC_Discuss-to-UC_Comment" style="stroke:#181818;stroke-width:1;"/><polygon fill="#181818" points="547.09,291.87,552.1543,283.4229,547.6978,286.9071,544.2136,282.4505,547.09,291.87" style="stroke:#181818;stroke-width:1;"/></g><!--link UC_Discuss to UC_RateComments--><g class="link" data-entity-1="UC_Discuss" data-entity-2="UC_RateComments" data-source-line="54" data-uid="lnk35" id="link_UC_Discuss_UC_RateComments"><path d="M591.38,223.59 C624.52,244.14 669.4612,272.0074 699.1912,290.4474" fill="none" id="UC_Discuss-to-UC_RateComments" style="stroke:#181818;stroke-width:1;"/><polygon fill="#181818" points="704.29,293.61,698.7501,285.4669,700.041,290.9745,694.5334,292.2654,704.29,293.61" style="stroke:#181818;stroke-width:1;"/></g><!--link UC_SelectDistro to UC_Homepages--><g class="link" data-entity-1="UC_SelectDistro" data-entity-2="UC_Homepages" data-source-line="56" data-uid="lnk36" id="link_UC_SelectDistro_UC_Homepages"><path d="M1013.58,222.16 C1035.32,231.47 1062.63,242 1088,248.44 C1222.32,282.54 1376.4729,297.3171 1475.9729,303.8471" fill="none" id="UC_SelectDistro-to-UC_Homepages" style="stroke:#181818;stroke-width:1;"/><polygon fill="#181818" points="1481.96,304.24,1473.2413,299.6592,1476.9707,303.9126,1472.7174,307.642,1481.96,304.24" style="stroke:#181818;stroke-width:1;"/></g><!--link UC_SelectWM to UC_Homepages--><g class="link" data-entity-1="UC_SelectWM" data-entity-2="UC_Homepages" data-source-line="57" data-uid="lnk37" id="link_UC_SelectWM_UC_Homepages"><path d="M1245.14,221.74 C1266.49,230.61 1292.81,240.88 1317,248.44 C1379.15,267.86 1445.5224,282.9741 1498.0624,293.7541" fill="none" id="UC_SelectWM-to-UC_Homepages" style="stroke:#181818;stroke-width:1;"/><polygon fill="#181818" points="1503.94,294.96,1495.9276,289.2327,1499.042,293.955,1494.3197,297.0695,1503.94,294.96" style="stroke:#181818;stroke-width:1;"/></g><!--link UC_SelectDE to UC_Homepages--><g class="link" data-entity-1="UC_SelectDE" data-entity-2="UC_Homepages" data-source-line="58" data-uid="lnk38" id="link_UC_SelectDE_UC_Homepages"><path d="M1473.64,225.9 C1496.84,244.54 1524.5522,266.7926 1546.8622,284.7126" fill="none" id="UC_SelectDE-to-UC_Homepages" style="stroke:#181818;stroke-width:1;"/><polygon fill="#181818" points="1551.54,288.47,1547.0282,279.7154,1547.6418,285.3389,1542.0183,285.9525,1551.54,288.47" style="stroke:#181818;stroke-width:1;"/></g><!--link UC_SelectTerm to UC_Homepages--><g class="link" data-entity-1="UC_SelectTerm" data-entity-2="UC_Homepages" data-source-line="59" data-uid="lnk39" id="link_UC_SelectTerm_UC_Homepages"><path d="M1678.38,227.48 C1655.38,245.96 1628.9174,267.2221 1607.2474,284.6321" fill="none" id="UC_SelectTerm-to-UC_Homepages" style="stroke:#181818;stroke-width:1;"/><polygon fill="#181818" points="1602.57,288.39,1612.0914,285.8714,1606.4678,285.2584,1607.0808,279.6349,1602.57,288.39" style="stroke:#181818;stroke-width:1;"/></g><!--link UC_SelectShell to UC_Homepages--><g class="link" data-entity-1="UC_SelectShell" data-entity-2="UC_Homepages" data-source-line="60" data-uid="lnk40" id="link_UC_SelectShell_UC_Homepages"><path d="M1905.51,216.63 C1889.6,226.73 1866.68,240.1 1845,248.44 C1784.01,271.9 1717.4499,286.5339 1663.2599,296.0339" fill="none" id="UC_SelectShell-to-UC_Homepages" style="stroke:#181818;stroke-width:1;"/><polygon fill="#181818" points="1657.35,297.07,1666.9055,299.4558,1662.2749,296.2066,1665.5241,291.576,1657.35,297.07" style="stroke:#181818;stroke-width:1;"/></g><!--link UC_AddPkgMgr to UC_Homepages--><g class="link" data-entity-1="UC_AddPkgMgr" data-entity-2="UC_Homepages" data-source-line="61" data-uid="lnk41" id="link_UC_AddPkgMgr_UC_Homepages"><path d="M2079.01,221.14 C2058.29,230.64 2031.72,241.66 2007,248.44 C1893.22,279.66 1763.8386,294.8034 1675.7986,302.2634" fill="none" id="UC_AddPkgMgr-to-UC_Homepages" style="stroke:#181818;stroke-width:1;"/><polygon fill="#181818" points="1669.82,302.77,1679.1256,305.9958,1674.8021,302.3478,1678.4501,298.0244,1669.82,302.77" style="stroke:#181818;stroke-width:1;"/></g><!--link User to UC_LoginGoogle--><g class="link" data-entity-1="User" data-entity-2="UC_LoginGoogle" data-source-line="64" data-uid="lnk42" id="link_User_UC_LoginGoogle"><path d="M2347.63,44.62 C2155.01,44.26 326.06,42.12 224,89.8 C181.78,109.52 153.4955,152.1115 138.9755,178.1115" fill="none" id="User-to-UC_LoginGoogle" style="stroke:#181818;stroke-width:1;"/><polygon fill="#181818" points="136.05,183.35,143.9305,177.4426,138.4879,178.9846,136.9459,173.542,136.05,183.35" style="stroke:#181818;stroke-width:1;"/></g><!--link User to UC_LoginGitHub--><g class="link" data-entity-1="User" data-entity-2="UC_LoginGitHub" data-source-line="65" data-uid="lnk43" id="link_User_UC_LoginGitHub"><path d="M2347.66,44.7 C2166.29,45.32 534.52,51.88 441,89.8 C392.85,109.32 355.7915,152.8787 336.5315,178.8787" fill="none" id="User-to-UC_LoginGitHub" style="stroke:#181818;stroke-width:1;"/><polygon fill="#181818" points="332.96,183.7,341.5314,178.8491,335.9362,179.6823,335.103,174.0871,332.96,183.7" style="stroke:#181818;stroke-width:1;"/></g><!--link User to UC_Discuss--><g class="link" data-entity-1="User" data-entity-2="UC_Discuss" data-source-line="67" data-uid="lnk44" id="link_User_UC_Discuss"><path d="M2347.61,44.75 C2178.6,45.86 757.56,56.18 676,89.8 C631,108.35 596.5196,147.7522 576.5696,174.4722" fill="none" id="User-to-UC_Discuss" style="stroke:#181818;stroke-width:1;"/><polygon fill="#181818" points="572.98,179.28,581.5696,174.4614,575.9714,175.2735,575.1593,169.6753,572.98,179.28" style="stroke:#181818;stroke-width:1;"/></g><!--link User to UC_RateDistros--><g class="link" data-entity-1="User" data-entity-2="UC_RateDistros" data-source-line="68" data-uid="lnk45" id="link_User_UC_RateDistros"><path d="M2347.68,44.78 C2189.24,46.05 929.32,57.17 858,89.8 C812.76,110.49 781.5257,156.4846 766.8557,181.4946" fill="none" id="User-to-UC_RateDistros" style="stroke:#181818;stroke-width:1;"/><polygon fill="#181818" points="763.82,186.67,771.8238,180.9307,766.3497,182.3572,764.9233,176.8831,763.82,186.67" style="stroke:#181818;stroke-width:1;"/></g><!--link User to UC_SelectDistro--><g class="link" data-entity-1="User" data-entity-2="UC_SelectDistro" data-source-line="70" data-uid="lnk46" id="link_User_UC_SelectDistro"><path d="M2347.76,44.53 C2207.96,43.56 1209.5,38.49 1088,89.8 C1043.3,108.67 1009.3227,148.3675 989.8627,174.9675" fill="none" id="User-to-UC_SelectDistro" style="stroke:#181818;stroke-width:1;"/><polygon fill="#181818" points="986.32,179.81,994.8623,174.9081,989.2722,175.7746,988.4057,170.1845,986.32,179.81" style="stroke:#181818;stroke-width:1;"/></g><!--link User to UC_SelectWM--><g class="link" data-entity-1="User" data-entity-2="UC_SelectWM" data-source-line="71" data-uid="lnk47" id="link_User_UC_SelectWM"><path d="M2347.63,44.66 C2222.21,44.81 1415.64,47.44 1317,89.8 C1272.36,108.97 1238.5272,148.979 1219.3672,175.459" fill="none" id="User-to-UC_SelectWM" style="stroke:#181818;stroke-width:1;"/><polygon fill="#181818" points="1215.85,180.32,1224.3665,175.3734,1218.781,176.2692,1217.8852,170.6837,1215.85,180.32" style="stroke:#181818;stroke-width:1;"/></g><!--link User to UC_SelectDE--><g class="link" data-entity-1="User" data-entity-2="UC_SelectDE" data-source-line="72" data-uid="lnk48" id="link_User_UC_SelectDE"><path d="M2347.79,44.95 C2241.59,46.98 1647.23,59.64 1573,89.8 C1526.93,108.52 1489.775,146.3491 1467.215,173.0191" fill="none" id="User-to-UC_SelectDE" style="stroke:#181818;stroke-width:1;"/><polygon fill="#181818" points="1463.34,177.6,1472.2064,173.312,1466.5691,173.7826,1466.0985,168.1453,1463.34,177.6" style="stroke:#181818;stroke-width:1;"/></g><!--link User to UC_SelectTerm--><g class="link" data-entity-1="User" data-entity-2="UC_SelectTerm" data-source-line="73" data-uid="lnk49" id="link_User_UC_SelectTerm"><path d="M2347.68,44.79 C2270.21,45.62 1939.48,51.42 1845,89.8 C1798.39,108.73 1759.4593,145.0194 1734.7593,171.5394" fill="none" id="User-to-UC_SelectTerm" style="stroke:#181818;stroke-width:1;"/><polygon fill="#181818" points="1730.67,175.93,1739.731,172.0703,1734.0778,172.2711,1733.8769,166.6179,1730.67,175.93" style="stroke:#181818;stroke-width:1;"/></g><!--link User to UC_SelectShell--><g class="link" data-entity-1="User" data-entity-2="UC_SelectShell" data-source-line="74" data-uid="lnk50" id="link_User_UC_SelectShell"><path d="M2347.9,45.02 C2286.29,46.67 2066.04,54.94 2007,89.8 C1968.36,112.61 1945.2181,156.3433 1934.3581,180.8833" fill="none" id="User-to-UC_SelectShell" style="stroke:#181818;stroke-width:1;"/><polygon fill="#181818" points="1931.93,186.37,1939.23,179.7586,1933.9534,181.7977,1931.9143,176.5212,1931.93,186.37" style="stroke:#181818;stroke-width:1;"/></g><!--link User to UC_AddPkgMgr--><g class="link" data-entity-1="User" data-entity-2="UC_AddPkgMgr" data-source-line="75" data-uid="lnk51" id="link_User_UC_AddPkgMgr"><path d="M2347.71,49.05 C2324.36,55.76 2280.51,69.9 2247,89.8 C2202.9,115.98 2163.1565,152.8812 2139.0465,177.0612" fill="none" id="User-to-UC_AddPkgMgr" style="stroke:#181818;stroke-width:1;"/><polygon fill="#181818" points="2134.81,181.31,2143.9973,177.7611,2138.3404,177.7693,2138.3322,172.1125,2134.81,181.31" style="stroke:#181818;stroke-width:1;"/></g><!--link User to UC_LinuxOverview--><g class="link" data-entity-1="User" data-entity-2="UC_LinuxOverview" data-source-line="77" data-uid="lnk52" id="link_User_UC_LinuxOverview"><path d="M2364,82.07 C2364,112.41 2364,148.1 2364,173.17" fill="none" id="User-to-UC_LinuxOverview" style="stroke:#181818;stroke-width:1;"/><polygon fill="#181818" points="2364,179.17,2368,170.17,2364,174.17,2360,170.17,2364,179.17" style="stroke:#181818;stroke-width:1;"/></g><!--link User to UC_InstallGuides--><g class="link" data-entity-1="User" data-entity-2="UC_InstallGuides" data-source-line="78" data-uid="lnk53" id="link_User_UC_InstallGuides"><path d="M2380.45,48.27 C2404.4,54.11 2449.56,67.29 2482,89.8 C2519.61,115.9 2548.9193,154.4531 2565.3493,178.5431" fill="none" id="User-to-UC_InstallGuides" style="stroke:#181818;stroke-width:1;"/><polygon fill="#181818" points="2568.73,183.5,2566.9635,173.8109,2565.9127,179.3693,2560.3543,178.3185,2568.73,183.5" style="stroke:#181818;stroke-width:1;"/></g><!--link User to UC_History--><g class="link" data-entity-1="User" data-entity-2="UC_History" data-source-line="79" data-uid="lnk54" id="link_User_UC_History"><path d="M2380.27,45.62 C2436.8,49.18 2624.05,62.81 2677,89.8 C2719.18,111.3 2750.979,150.8178 2768.879,176.4978" fill="none" id="User-to-UC_History" style="stroke:#181818;stroke-width:1;"/><polygon fill="#181818" points="2772.31,181.42,2770.445,171.7493,2769.4508,177.3181,2763.882,176.324,2772.31,181.42" style="stroke:#181818;stroke-width:1;"/></g><!--link User to UC_OurSetups--><g class="link" data-entity-1="User" data-entity-2="UC_OurSetups" data-source-line="81" data-uid="lnk55" id="link_User_UC_OurSetups"><path d="M2380.39,44.59 C2458.91,44.5 2796.74,46.69 2891,89.8 C2937.24,110.95 2972.4202,154.1921 2990.5102,179.6021" fill="none" id="User-to-UC_OurSetups" style="stroke:#181818;stroke-width:1;"/><polygon fill="#181818" points="2993.99,184.49,2992.0289,174.8384,2991.0902,180.4168,2985.5118,179.4781,2993.99,184.49" style="stroke:#181818;stroke-width:1;"/></g><!--link User to UC_TechUsed--><g class="link" data-entity-1="User" data-entity-2="UC_TechUsed" data-source-line="82" data-uid="lnk56" id="link_User_UC_TechUsed"><path d="M2380.35,44.91 C2482.38,46.64 3029.66,57.36 3096,89.8 C3137.82,110.25 3166.4814,152.1188 3181.4514,177.9488" fill="none" id="User-to-UC_TechUsed" style="stroke:#181818;stroke-width:1;"/><polygon fill="#181818" points="3184.46,183.14,3183.4079,173.3475,3181.9528,178.814,3176.4863,177.359,3184.46,183.14" style="stroke:#181818;stroke-width:1;"/></g><!--link User to UC_AboutUs--><g class="link" data-entity-1="User" data-entity-2="UC_AboutUs" data-source-line="83" data-uid="lnk57" id="link_User_UC_AboutUs"><path d="M2380.45,44.52 C2498.23,43.69 3211.05,40.72 3292,89.8 C3328.31,111.81 3344.8794,156.5686 3351.8694,181.1586" fill="none" id="User-to-UC_AboutUs" style="stroke:#181818;stroke-width:1;"/><polygon fill="#181818" points="3353.51,186.93,3354.8967,177.1793,3352.1429,182.1205,3347.2016,179.3667,3353.51,186.93" style="stroke:#181818;stroke-width:1;"/></g><!--link User to UC_AboutPage--><g class="link" data-entity-1="User" data-entity-2="UC_AboutPage" data-source-line="84" data-uid="lnk58" id="link_User_UC_AboutPage"><path d="M2380.19,44.55 C2505.96,43.86 3324.87,41.25 3422,89.8 C3463.26,110.42 3489.6865,153.9037 3502.6765,179.4037" fill="none" id="User-to-UC_AboutPage" style="stroke:#181818;stroke-width:1;"/><polygon fill="#181818" points="3505.4,184.75,3504.879,174.9149,3503.1304,180.2948,3497.7506,178.5462,3505.4,184.75" style="stroke:#181818;stroke-width:1;"/></g><!--link User to UC_Contributions--><g class="link" data-entity-1="User" data-entity-2="UC_Contributions" data-source-line="85" data-uid="lnk59" id="link_User_UC_Contributions"><path d="M2380.21,44.88 C2521.81,46.91 3544.99,62.51 3603,89.8 C3645.31,109.7 3674.2667,151.8015 3689.3667,177.8015" fill="none" id="User-to-UC_Contributions" style="stroke:#181818;stroke-width:1;"/><polygon fill="#181818" points="3692.38,182.99,3691.319,173.1985,3689.8689,178.6663,3684.4011,177.2162,3692.38,182.99" style="stroke:#181818;stroke-width:1;"/></g><!--link User to UC_TreeNav--><g class="link" data-entity-1="User" data-entity-2="UC_TreeNav" data-source-line="87" data-uid="lnk60" id="link_User_UC_TreeNav"><path d="M2380.25,44.84 C2534.08,46.72 3729.67,62.19 3799,89.8 C3847.55,109.13 3885.9139,151.4893 3906.6139,177.7293" fill="none" id="User-to-UC_TreeNav" style="stroke:#181818;stroke-width:1;"/><polygon fill="#181818" points="3910.33,182.44,3907.8963,172.8966,3907.2332,178.5144,3901.6154,177.8514,3910.33,182.44" style="stroke:#181818;stroke-width:1;"/></g><!--link User to UC_NodeNav--><g class="link" data-entity-1="User" data-entity-2="UC_NodeNav" data-source-line="88" data-uid="lnk61" id="link_User_UC_NodeNav"><path d="M2380.4,44.75 C2548.04,45.83 3946.1,55.83 4026,89.8 C4070.31,108.64 4103.3897,148.7213 4122.0797,175.3113" fill="none" id="User-to-UC_NodeNav" style="stroke:#181818;stroke-width:1;"/><polygon fill="#181818" points="4125.53,180.22,4123.627,170.5567,4122.6547,176.1294,4117.0821,175.1571,4125.53,180.22" style="stroke:#181818;stroke-width:1;"/></g><!--link User to UC_Search--><g class="link" data-entity-1="User" data-entity-2="UC_Search" data-source-line="89" data-uid="lnk62" id="link_User_UC_Search"><path d="M2380.32,44.7 C2559.7,45.31 4159.6,51.82 4251,89.8 C4295.8,108.42 4329.759,148.199 4349.179,174.879" fill="none" id="User-to-UC_Search" style="stroke:#181818;stroke-width:1;"/><polygon fill="#181818" points="4352.71,179.73,4350.6475,170.0995,4349.7675,175.6875,4344.1795,174.8075,4352.71,179.73" style="stroke:#181818;stroke-width:1;"/></g><!--SRC=[VLNRRk8m47tdAqPzw3xr5rPYWIsLbXOLQ1zNnfactWOxiXtOQjL_tt6SY-sa8278ENFicR7dX76hD1mCwjbC8xTCvYN2pIyXwx_mBBYGETpN8aDunQCH5c_Wtsm6y0tkxkvWNji2fHMSMQ6aWuYg67zdEItYLeKvvwgMrZWTqASso9bnMwWSX8IBi0NSAqNRtW0pS5Zy9aP83rsH2BkkZx6aWKZoEMIuKATJBONzW9_8RAtHf5aE4RSKWzcHY56oMwQfIb4nYow3fJ2yDePgDbq6BPGaZEoCJGxOjC27jiznwBDREerqO8TDXDEULgiekeNI9iWtaTUQkRFUArMcFTXz68idsA6jgoXwr8WTbdHBmD-FPZDnhDtXTqdu09_6fFHLo4nTOCCaRQrZsUjcKh94ysvL1Ijv5bf9ruvakrMiMnHAqUyUzKb8LXfWCeDzWISqiT15J4ft1PPb7Dj0SV0yos3RDZ4fYAZjUxx9TQnu4JH4iDNgZojihKvOaQhFgWVY0rmgNhkg_PZTmeDyK-aPfZ7Dr4wCNNDoTCOSAslWwOpwBF3I3vAZEp1MFaXZMLdwzRlLlQgbF1Yh_4sWVFp6QtfK-gElrpzsrVR5p8-gja3cqhLgLCSBvGTFjVQNji-440_4qNlaXLGbkGGP0FbIriKxmZqdvzfiV-XNRPuFPYfeNmX3To37ADO1oRrIif-LM10nyRdlo73XaPr5Fccm0RD1MwXiVDm_jBhGxram-2d8sVSQ-utTVrhYIy6Z8jk_rwmgEeL3HeeTCiqBxyfhaHSbVIszDuRfSNnS6BKS5awzn0fbXfABtfa7CoNWUsoOOowoI1yHMb0N5WvMO3TNwUNgAksyusf0OnXVHFJsCER39caQTOkQSNzjsWOvl9N5xyenur-92JMygq8qV7qaL6BgOwenxWd5QX9kNNTCT1ORCeEHfWKcLXLogI65NESv2HmwHuW73X6brLl226s7FyJZ6KztwESmH8TPY_lK3DFdVm00]--></g></svg>