<svg xmlns="http://www.w3.org/2000/svg" xmlns:xlink="http://www.w3.org/1999/xlink" contentStyleType="text/css" height="420px" preserveAspectRatio="none" style="width:2497px;height:420px;background:#FFFFFF;" version="1.1" viewBox="0 0 2497 420" width="2497px" zoomAndPan="magnify"><defs/><g><!--cluster Linux ricing guide--><g id="cluster_Linux ricing guide"><rect fill="none" height="317" rx="2.5" ry="2.5" style="stroke:#181818;stroke-width:1;" width="2445" x="46.11" y="97.5"/><text fill="#000000" font-family="sans-serif" font-size="14" font-weight="bold" lengthAdjust="spacing" textLength="141.5244" x="1197.8478" y="112.4951">Linux ricing guide</text></g><!--cluster Utilities--><g id="cluster_Utilities"><path d="M573.61,140.5 L636.3864,140.5 A3.75,3.75 0 0 1 638.8864,143 L645.8864,162.7969 L2464.61,162.7969 A2.5,2.5 0 0 1 2467.11,165.2969 L2467.11,386 A2.5,2.5 0 0 1 2464.61,388.5 L573.61,388.5 A2.5,2.5 0 0 1 571.11,386 L571.11,143 A2.5,2.5 0 0 1 573.61,140.5 " fill="none" style="stroke:#000000;stroke-width:1.5;"/><line style="stroke:#000000;stroke-width:1.5;" x1="571.11" x2="645.8864" y1="162.7969" y2="162.7969"/><text fill="#000000" font-family="sans-serif" font-size="14" font-weight="bold" lengthAdjust="spacing" textLength="61.7764" x="575.11" y="155.4951">Utilities</text></g><!--cluster Custom Downloader--><g id="cluster_Custom Downloader"><path d="M749.61,183.5 L909.3815,183.5 A3.75,3.75 0 0 1 911.8815,186 L918.8815,205.7969 L2440.61,205.7969 A2.5,2.5 0 0 1 2443.11,208.2969 L2443.11,287 A2.5,2.5 0 0 1 2440.61,289.5 L749.61,289.5 A2.5,2.5 0 0 1 747.11,287 L747.11,186 A2.5,2.5 0 0 1 749.61,183.5 " fill="none" style="stroke:#000000;stroke-width:1.5;"/><line style="stroke:#000000;stroke-width:1.5;" x1="747.11" x2="918.8815" y1="205.7969" y2="205.7969"/><text fill="#000000" font-family="sans-serif" font-size="14" font-weight="bold" lengthAdjust="spacing" textLength="158.7715" x="751.11" y="198.4951">Custom Downloader</text></g><!--cluster History and Information--><g id="cluster_History and Information"><path d="M72.61,186.5 L262.8834,186.5 A3.75,3.75 0 0 1 265.3834,189 L272.3834,208.7969 L544.61,208.7969 A2.5,2.5 0 0 1 547.11,211.2969 L547.11,388 A2.5,2.5 0 0 1 544.61,390.5 L72.61,390.5 A2.5,2.5 0 0 1 70.11,388 L70.11,189 A2.5,2.5 0 0 1 72.61,186.5 " fill="none" style="stroke:#000000;stroke-width:1.5;"/><line style="stroke:#000000;stroke-width:1.5;" x1="70.11" x2="272.3834" y1="208.7969" y2="208.7969"/><text fill="#000000" font-family="sans-serif" font-size="14" font-weight="bold" lengthAdjust="spacing" textLength="189.2734" x="74.11" y="201.4951">History and Information</text></g><g id="elem_UC11"><ellipse cx="1529.0387" cy="354.1857" fill="#F1F1F1" rx="81.4287" ry="18.6857" style="stroke:#181818;stroke-width:0.5;"/><text fill="#000000" font-family="sans-serif" font-size="14" lengthAdjust="spacing" textLength="121.96" x="1466.9181" y="357.4075">Configurator Tool</text></g><g id="elem_UC12"><ellipse cx="658.0564" cy="245.9893" fill="#F1F1F1" rx="70.4464" ry="16.4893" style="stroke:#181818;stroke-width:0.5;"/><text fill="#000000" font-family="sans-serif" font-size="14" lengthAdjust="spacing" textLength="94.0352" x="608.0388" y="249.7368">Search Utility</text></g><g id="elem_UC1"><ellipse cx="1404.2566" cy="246.0293" fill="#F1F1F1" rx="110.6466" ry="24.5293" style="stroke:#181818;stroke-width:0.5;"/><text fill="#000000" font-family="sans-serif" font-size="14" lengthAdjust="spacing" textLength="187.2773" x="1310.6179" y="248.876">Choose Linux Distributions</text></g><g id="elem_UC2"><ellipse cx="1153.1779" cy="246.0136" fill="#F1F1F1" rx="105.5679" ry="23.5136" style="stroke:#181818;stroke-width:0.5;"/><text fill="#000000" font-family="sans-serif" font-size="14" lengthAdjust="spacing" textLength="176.2578" x="1065.049" y="248.8603">Select Window Managers</text></g><g id="elem_UC3"><ellipse cx="887.8947" cy="245.7569" fill="#F1F1F1" rx="124.2847" ry="27.2569" style="stroke:#181818;stroke-width:0.5;"/><text fill="#000000" font-family="sans-serif" font-size="14" lengthAdjust="spacing" textLength="216.4736" x="779.6579" y="248.6036">Explore Desktop Environments</text></g><g id="elem_UC4"><ellipse cx="2314.1749" cy="246.013" fill="#F1F1F1" rx="113.0649" ry="25.013" style="stroke:#181818;stroke-width:0.5;"/><text fill="#000000" font-family="sans-serif" font-size="14" lengthAdjust="spacing" textLength="192.4932" x="2217.9284" y="248.8597">Pick Terminals and Themes</text></g><g id="elem_UC5"><ellipse cx="2097.2422" cy="246.1264" fill="#F1F1F1" rx="68.6322" ry="16.1264" style="stroke:#181818;stroke-width:0.5;"/><text fill="#000000" font-family="sans-serif" font-size="14" lengthAdjust="spacing" textLength="89.0859" x="2049.6992" y="249.874">Select Shells</text></g><g id="elem_UC6"><ellipse cx="1893.0005" cy="245.8781" fill="#F1F1F1" rx="99.8905" ry="22.3781" style="stroke:#181818;stroke-width:0.5;"/><text fill="#000000" font-family="sans-serif" font-size="14" lengthAdjust="spacing" textLength="163.8164" x="1811.0923" y="248.7248">Add Package Managers</text></g><g id="elem_UC7"><ellipse cx="1654.1275" cy="246.2035" fill="#F1F1F1" rx="104.0175" ry="23.2035" style="stroke:#181818;stroke-width:0.5;"/><text fill="#000000" font-family="sans-serif" font-size="14" lengthAdjust="spacing" textLength="172.874" x="1567.6904" y="249.0502">Download Custom Setup</text></g><g id="elem_UC8"><ellipse cx="420.2915" cy="246.1363" fill="#F1F1F1" rx="111.1815" ry="24.6363" style="stroke:#181818;stroke-width:0.5;"/><text fill="#000000" font-family="sans-serif" font-size="14" lengthAdjust="spacing" textLength="188.4326" x="326.0752" y="248.983">Explore Linux Distributions</text></g><g id="elem_UC9"><ellipse cx="420.2854" cy="354.2351" fill="#F1F1F1" rx="91.6754" ry="20.7351" style="stroke:#181818;stroke-width:0.5;"/><text fill="#000000" font-family="sans-serif" font-size="14" lengthAdjust="spacing" textLength="145.5234" x="347.5237" y="357.0818">View Distro Histories</text></g><g id="elem_UC10"><ellipse cx="180.2167" cy="246.2213" fill="#F1F1F1" rx="94.1067" ry="21.2213" style="stroke:#181818;stroke-width:0.5;"/><text fill="#000000" font-family="sans-serif" font-size="14" lengthAdjust="spacing" textLength="150.9785" x="104.7274" y="249.068">View example Setups</text></g><!--entity User--><g id="elem_User"><ellipse cx="300.0651" cy="14" fill="#F1F1F1" rx="8" ry="8" style="stroke:#181818;stroke-width:0.5;"/><path d="M300.0651,22 L300.0651,49 M287.0651,30 L313.0651,30 M300.0651,49 L287.0651,64 M300.0651,49 L313.0651,64 " fill="none" style="stroke:#181818;stroke-width:0.5;"/><text fill="#000000" font-family="sans-serif" font-size="14" lengthAdjust="spacing" textLength="31.9102" x="284.11" y="78.4951">User</text></g><!--link UC8 to UC9--><g id="link_UC8_UC9"><path d="M420.11,270.52 C420.11,289.43 420.11,309.68 420.11,327.45 " fill="none" id="UC8-to-UC9" style="stroke:#181818;stroke-width:1;"/><polygon fill="#181818" points="420.11,333.45,424.11,324.45,420.11,328.45,416.11,324.45,420.11,333.45" style="stroke:#181818;stroke-width:1;"/></g><!--link UC11 to UC7--><g id="link_UC11_UC7"><path d="M1549.42,335.78 C1571.08,317.41 1600.8435,292.1702 1624.2435,272.3302 " fill="none" id="UC11-to-UC7" style="stroke:#181818;stroke-width:1;"/><polygon fill="#181818" points="1628.82,268.45,1619.3685,271.2193,1625.0063,271.6835,1624.5421,277.3213,1628.82,268.45" style="stroke:#181818;stroke-width:1;"/></g><!--link UC1 to UC11--><g id="link_UC1_UC11"><path d="M1431.24,270 C1454.65,289.85 1483.3545,314.1887 1504.4445,332.0787 " fill="none" id="UC1-to-UC11" style="stroke:#181818;stroke-width:1;"/><polygon fill="#181818" points="1509.02,335.96,1504.7442,327.0877,1505.207,332.7256,1499.5692,333.1884,1509.02,335.96" style="stroke:#181818;stroke-width:1;"/></g><!--link UC2 to UC11--><g id="link_UC2_UC11"><path d="M1197.41,267.37 C1220.52,277.43 1249.45,289.17 1276.11,297.5 C1339.64,317.34 1408.3691,331.7039 1460.0391,341.2139 " fill="none" id="UC2-to-UC11" style="stroke:#181818;stroke-width:1;"/><polygon fill="#181818" points="1465.94,342.3,1457.8127,336.737,1461.0226,341.3949,1456.3646,344.6048,1465.94,342.3" style="stroke:#181818;stroke-width:1;"/></g><!--link UC3 to UC11--><g id="link_UC3_UC11"><path d="M944.91,270.59 C970.53,280.35 1001.43,290.9 1030.11,297.5 C1175.8,331.03 1344.2484,344.222 1443.5284,349.492 " fill="none" id="UC3-to-UC11" style="stroke:#181818;stroke-width:1;"/><polygon fill="#181818" points="1449.52,349.81,1440.7447,345.3386,1444.527,349.545,1440.3206,353.3273,1449.52,349.81" style="stroke:#181818;stroke-width:1;"/></g><!--link UC4 to UC11--><g id="link_UC4_UC11"><path d="M2267.22,268.8 C2242.69,279.24 2211.86,290.88 2183.11,297.5 C1981.01,344.03 1741.7198,352.4029 1616.7998,353.3829 " fill="none" id="UC4-to-UC11" style="stroke:#181818;stroke-width:1;"/><polygon fill="#181818" points="1610.8,353.43,1619.8311,357.3593,1615.7998,353.3908,1619.7683,349.3595,1610.8,353.43" style="stroke:#181818;stroke-width:1;"/></g><!--link UC5 to UC11--><g id="link_UC5_UC11"><path d="M2077.76,261.57 C2061.04,273.34 2035.74,289.26 2011.11,297.5 C1875.71,342.79 1714.3094,352.3571 1616.6394,353.7071 " fill="none" id="UC5-to-UC11" style="stroke:#181818;stroke-width:1;"/><polygon fill="#181818" points="1610.64,353.79,1619.6944,357.6652,1615.6395,353.7209,1619.5839,349.666,1610.64,353.79" style="stroke:#181818;stroke-width:1;"/></g><!--link UC6 to UC11--><g id="link_UC6_UC11"><path d="M1852.68,266.67 C1830.47,276.91 1802.2,289.02 1776.11,297.5 C1714.77,317.44 1648.4874,331.6449 1598.0574,341.0949 " fill="none" id="UC6-to-UC11" style="stroke:#181818;stroke-width:1;"/><polygon fill="#181818" points="1592.16,342.2,1601.7428,344.4739,1597.0745,341.2791,1600.2693,336.6108,1592.16,342.2" style="stroke:#181818;stroke-width:1;"/></g><!--link User to UC11--><g id="link_User_UC11"><path d="M283.82,45.11 C235.95,47.28 97.4,56.36 70.11,89.5 C11.36,160.87 6,230.9 70.11,297.5 C94.18,322.5 1139.4012,345.2296 1442.2612,351.3096 " fill="none" id="User-to-UC11" style="stroke:#181818;stroke-width:1;"/><polygon fill="#181818" points="1448.26,351.43,1439.3421,347.2502,1443.261,351.3296,1439.1815,355.2486,1448.26,351.43" style="stroke:#181818;stroke-width:1;"/></g><!--link User to UC12--><g id="link_User_UC12"><path d="M316.38,45.87 C364.99,50.2 508.2,64.8 547.11,89.5 C602,124.34 635.5399,191.468 649.3599,223.608 " fill="none" id="User-to-UC12" style="stroke:#181818;stroke-width:1;"/><polygon fill="#181818" points="651.73,229.12,651.8495,219.2719,649.7549,224.5266,644.5001,222.4321,651.73,229.12" style="stroke:#181818;stroke-width:1;"/></g><!--link User to UC8--><g id="link_User_UC8"><path d="M316.3,71.54 C339.97,111.09 380.5585,178.9118 402.9685,216.3518 " fill="none" id="User-to-UC8" style="stroke:#181818;stroke-width:1;"/><polygon fill="#181818" points="406.05,221.5,404.8599,211.7233,403.4821,217.2098,397.9956,215.832,406.05,221.5" style="stroke:#181818;stroke-width:1;"/></g><!--link User to UC10--><g id="link_User_UC10"><path d="M283.93,71.54 C259.49,112.37 216.8107,183.6813 195.1507,219.8813 " fill="none" id="User-to-UC10" style="stroke:#181818;stroke-width:1;"/><polygon fill="#181818" points="192.07,225.03,200.1235,219.3607,194.6372,220.7394,193.2586,215.2531,192.07,225.03" style="stroke:#181818;stroke-width:1;"/></g><!--SRC=[TPFRQi9048RlynI3zu9dxKsXgD122uBQNc-JCGvkTiBkfYh5T-_ciDPDQo24d_dciFziH6nPmzQWZYADiHKgbGYTLrB52JJ5f5982qgm0zzH192B-21IHsmjIRA4fWo0Umg3iJ0kCcUrexJGegoyOPOT40Qsytu_vDOeTBo7kj3PGuEeegvzveMndC62ZqgoI53xVhSTzypkMm-z86CrVHQMM1bVjPsnHkaE2n-a4Zx2cr2kb_Rqe4qlJxbaZR10Sx2Smr9zaMQLeR8-PzZEML5yW0tgZ9IG1eHAOBF737t2wCv8wprAwQ5n6tfA4bWrrhIcdhHPRnaq5gxH5da3Jolu4fLliDPdvnxhSpNlYzgnpaHfv9ybUqlkUpuB4zu9ZpN7K3UXgnSF_w1u4bdkhc8rzNMFlNfYAEj3j_lO99UNgv7JMZQgkdDkew4SXd8Kod4e9x-orEvF2U8tUX3gMIlSYou_]--></g></svg>